<svg class="icon" viewBox="0 0 24 24" xmlns="http://www.w3.org/2000/svg">
  <path
    d="m18.5 11c-0.5523 0 -1 0.4477 -1 1 0 0.5523 0.4477 1 1 1 0.5523 0 1 -0.4477 1 -1 0 -0.5523 -0.4477 -1 -1 -1z"
    fill="currentColor"
  />
  <path
    d="m13.5 12c0 -0.5523 0.4477 -1 1 -1 0.5523 0 1 0.4477 1 1 0 0.5523 -0.4477 1 -1 1 -0.5523 0 -1 -0.4477 -1 -1z"
    fill="currentColor"
  />
  <path
    fill-rule="evenodd"
    clip-rule="evenodd"
    d="M2.833334 8C1.820811 8 1 8.89543 1 10v4c0 1.1046 0.82081 2 1.833334 2H21.16666C22.17922 16 23 15.1046 23 14V10C23 8.89543 22.17922 8 21.16666 8ZM21.16666 10H2.833334v4H21.16666Z"
    fill="currentColor"
  />
</svg>
