<svg class="icon" viewBox="0 0 24 24" xmlns="http://www.w3.org/2000/svg">
  <path
    fill-rule="evenodd"
    clip-rule="evenodd"
    d="M4.666666 2C3.654144 2 2.833334 2.85279 2.833334 3.904762v0.952381c0 0.053962 0.00216 0.107409 0.00638 0.160238C1.768296 5.407724 1 6.46779 1 7.714286V19.14286C1 20.72086 2.23122 22 3.75 22h16.5C21.76882 22 23 20.72086 23 19.14286V7.714286C23 6.136333 21.76882 4.857143 20.25 4.857143H11.8845C11.4774 3.214067 10.041854 2 8.333334 2ZM9.921404 4.857143C9.60441 4.28781 9.011924 3.904762 8.333334 3.904762H4.666666V4.857143ZM3.75 6.761905c-0.506256 0 -0.916666 0.4264 -0.916666 0.952381V19.14286c0 0.526 0.41041 0.95238 0.916666 0.95238h16.5c0.50628 0 0.91666 -0.42638 0.91666 -0.95238V7.714286c0 -0.525981 -0.41038 -0.952381 -0.91666 -0.952381z"
    fill="currentColor"
  />
</svg>
