<?xml version="1.0" encoding="utf-8"?>
<svg fill="#000000" width="512px" height="512px" viewBox="0 0 24 24" role="img" xmlns="http://www.w3.org/2000/svg">
<circle cx="12" cy="12" r="12" stroke="none" fill="#e8bf28"/>
<path d="M16.615997 8.0769653L16.615997 12L14.308044 12L17.769012 16.039032L21.230988 12L18.923035 12L18.923035 8.0769653L16.615997 8.0769653zM3.367218 8.0779724L3.367218 10.486816L6.7804871 10.486633L6.7804871 16.091492L9.1893311 16.089478L9.1893311 10.48645L12.598206 10.486267L12.598206 8.0779724L9.1893311 8.0779724L6.7804871 8.0779724L3.367218 8.0779724zM9.5695496 12.517273L9.5695496 16.091492L10.620758 16.090576L10.620758 14.040894L11.672058 15.35495L12.722809 14.040894L12.722809 16.090576L13.774109 16.090576L13.774109 12.517273L12.722809 12.517273L11.672058 13.831329L10.620758 12.517273L9.5695496 12.517273z"/>
</svg>
